<svg xmlns="http://www.w3.org/2000/svg" viewBox="0 0 64 64" role="img" aria-label="Filmtersect icon">
  <defs>
    <linearGradient id="bg" x1="0" y1="0" x2="1" y2="1">
      <stop offset="0%" stop-color="#f7f5f3" />
      <stop offset="100%" stop-color="#ece9e5" />
    </linearGradient>
  </defs>

  <rect width="64" height="64" rx="14" fill="url(#bg)" />

  <circle cx="27" cy="33" r="14" fill="#e6e1db" stroke="#c8c0b8" stroke-width="1.4" />
  <circle cx="39" cy="33" r="14" fill="#e1ddd7" stroke="#c8c0b8" stroke-width="1.4" />

  <path
    d="M26.8 28.2l1.6 3.3 3.7.5-2.7 2.6.6 3.7-3.2-1.7-3.2 1.7.6-3.7-2.7-2.6 3.7-.5 1.6-3.3z"
    fill="none"
    stroke="#8a8178"
    stroke-width="1.35"
    stroke-linejoin="round"
  />

  <path d="M36 34.2h6l-.8 5.9h-4.4l-.8-5.9z" fill="none" stroke="#8a8178" stroke-width="1.2" stroke-linejoin="round" />
  <path d="M36.1 33.6h5.8" fill="none" stroke="#8a8178" stroke-width="1.2" stroke-linecap="round" />
  <path d="M37.2 34.2v5.6M39 34.2v5.6M40.8 34.2v5.6" fill="none" stroke="#8a8178" stroke-width="1.05" stroke-linecap="round" />
  <path
    d="M36.2 32.8c0-.7.5-1.2 1.2-1.2.2 0 .4.1.6.2.2-.6.7-1 1.3-1 .7 0 1.2.4 1.3 1 .2-.1.4-.1.6-.1.7 0 1.2.5 1.2 1.2 0 .3-.1.6-.3.8h-5.5c-.2-.2-.4-.5-.4-.9z"
    fill="none"
    stroke="#8a8178"
    stroke-width="1.2"
    stroke-linejoin="round"
  />
</svg>
